<svg width="25" height="24" viewBox="0 0 25 24" fill="none" xmlns="http://www.w3.org/2000/svg">
<path d="M12.2922 6L11.2197 7.04475L15.4047 11.25H6.29224V12.75H15.4047L11.2197 16.9298L12.2922 18L18.2922 12L12.2922 6Z" fill="black"/>
<path d="M12.2922 22.5C10.2155 22.5 8.18547 21.8842 6.45875 20.7304C4.73204 19.5767 3.38623 17.9368 2.59151 16.0182C1.79679 14.0996 1.58885 11.9884 1.994 9.95156C2.39914 7.91476 3.39917 6.04383 4.86762 4.57538C6.33607 3.10693 8.20699 2.1069 10.2438 1.70176C12.2806 1.29661 14.3918 1.50455 16.3104 2.29927C18.229 3.09399 19.8689 4.4398 21.0227 6.16652C22.1764 7.89323 22.7922 9.9233 22.7922 12C22.7891 14.7838 21.6818 17.4527 19.7134 19.4211C17.7449 21.3896 15.076 22.4968 12.2922 22.5ZM12.2922 3C10.5122 3 8.77215 3.52785 7.29211 4.51678C5.81207 5.50571 4.65851 6.91132 3.97733 8.55585C3.29614 10.2004 3.11791 12.01 3.46517 13.7558C3.81244 15.5016 4.66961 17.1053 5.92828 18.364C7.18695 19.6226 8.7906 20.4798 10.5364 20.8271C12.2823 21.1743 14.0919 20.9961 15.7364 20.3149C17.3809 19.6337 18.7865 18.4802 19.7755 17.0001C20.7644 15.5201 21.2922 13.78 21.2922 12C21.2895 9.61391 20.3404 7.32634 18.6531 5.63911C16.9659 3.95189 14.6783 3.00278 12.2922 3Z" fill="black"/>
</svg>
