<svg width="554" height="1022" viewBox="0 0 554 1022" fill="none" xmlns="http://www.w3.org/2000/svg">
<path d="M259.275 0H255.179V171.622H259.275V0Z" fill="#B79FFF"/>
<path d="M268.278 181.864C268.278 188.008 263.363 192.923 257.219 192.923C251.075 192.923 246.16 188.008 246.16 181.864C246.16 175.72 251.075 170.805 257.219 170.805C263.363 170.805 268.278 175.72 268.278 181.864ZM249.846 181.864C249.846 185.96 253.123 188.827 256.81 188.827C260.496 188.827 263.773 185.551 263.773 181.864C263.773 178.178 260.496 174.901 256.81 174.901C253.123 174.901 249.846 178.178 249.846 181.864Z" fill="#B79FFF"/>
<path d="M277.297 450.148C277.297 456.292 272.382 461.207 266.238 461.207C260.094 461.207 255.179 456.292 255.179 450.148C255.179 444.004 260.094 439.089 266.238 439.089C272.382 439.089 277.297 444.004 277.297 450.148ZM258.865 450.148C258.865 454.244 262.142 457.111 265.829 457.111C269.515 457.111 272.792 453.835 272.792 450.148C272.792 446.462 269.515 443.185 265.829 443.185C262.142 443.185 258.865 446.462 258.865 450.148Z" fill="#B79FFF"/>
<path d="M231.838 270.333C231.838 276.477 226.923 281.393 220.779 281.393C214.635 281.393 209.719 276.477 209.719 270.333C209.719 264.189 214.635 259.274 220.779 259.274C226.923 259.274 231.838 264.189 231.838 270.333ZM213.406 270.333C213.406 274.429 216.683 277.297 220.369 277.297C224.055 277.297 227.332 274.02 227.332 270.333C227.332 266.647 224.055 263.37 220.369 263.37C216.683 263.37 213.406 266.647 213.406 270.333Z" fill="#B79FFF"/>
<path d="M277.297 356.758C277.297 362.902 272.382 367.818 266.238 367.818C260.094 367.818 255.179 362.902 255.179 356.758C255.179 350.614 260.094 345.699 266.238 345.699C272.382 345.699 277.297 350.614 277.297 356.758ZM258.865 356.758C258.865 360.854 262.142 363.722 265.829 363.722C269.515 363.722 272.792 360.445 272.792 356.758C272.792 353.072 269.515 349.795 265.829 349.795C262.142 349.795 258.865 353.072 258.865 356.758Z" fill="#B79FFF"/>
<path d="M277.297 393.214C277.297 399.358 272.382 404.273 266.238 404.273C260.094 404.273 255.179 399.358 255.179 393.214C255.179 387.07 260.094 382.154 266.238 382.154C272.382 382.154 277.297 387.07 277.297 393.214ZM258.865 393.214C258.865 397.31 262.142 400.177 265.829 400.177C269.515 400.177 272.792 396.9 272.792 393.214C272.792 389.527 269.515 386.25 265.829 386.25C262.142 386.25 258.865 389.527 258.865 393.214Z" fill="#B79FFF"/>
<path d="M186.357 393.214C186.357 399.358 181.442 404.273 175.298 404.273C169.154 404.273 164.239 399.358 164.239 393.214C164.239 387.07 169.154 382.154 175.298 382.154C181.442 382.154 186.357 387.07 186.357 393.214ZM167.925 393.214C167.925 397.31 171.202 400.177 174.888 400.177C178.575 400.177 181.851 396.9 181.851 393.214C181.851 389.527 178.575 386.25 174.888 386.25C171.202 386.25 167.925 389.527 167.925 393.214Z" fill="#B79FFF"/>
<path d="M40.5583 151.959C40.5583 158.103 35.6431 163.018 29.4991 163.018C23.3551 163.018 18.4399 158.103 18.4399 151.959C18.4399 145.815 23.3551 140.899 29.4991 140.899C35.6431 140.899 40.5583 145.815 40.5583 151.959ZM22.1263 151.959C22.1263 156.055 25.4031 158.922 29.0895 158.922C32.7759 158.922 36.0527 155.645 36.0527 151.959C36.0527 148.272 32.7759 144.995 29.0895 144.995C25.4031 144.995 22.1263 148.272 22.1263 151.959Z" fill="black" fill-opacity="0.04"/>
<path d="M49.5583 94.2086C49.5583 100.353 44.6431 105.268 38.4991 105.268C32.3551 105.268 27.4399 100.353 27.4399 94.2086C27.4399 88.0646 32.3551 83.1494 38.4991 83.1494C44.6431 83.1494 49.5583 88.0646 49.5583 94.2086ZM31.1263 94.2086C31.1263 98.3046 34.4031 101.172 38.0895 101.172C41.7759 101.172 45.0527 97.895 45.0527 94.2086C45.0527 90.5222 41.7759 87.2454 38.0895 87.2454C34.4031 87.2454 31.1263 90.5222 31.1263 94.2086Z" fill="black" fill-opacity="0.04"/>
<path d="M49.5583 200.294C49.5583 206.438 44.6431 211.353 38.4991 211.353C32.3551 211.353 27.4399 206.438 27.4399 200.294C27.4399 194.15 32.3551 189.235 38.4991 189.235C44.6431 189.235 49.5583 194.15 49.5583 200.294ZM31.1263 200.294C31.1263 204.39 34.4031 207.257 38.0895 207.257C42.1855 207.257 45.0527 203.98 45.0527 200.294C45.0527 196.608 41.7759 193.331 38.0895 193.331C34.4031 193.331 31.1263 196.608 31.1263 200.294Z" fill="black" fill-opacity="0.04"/>
<path d="M86.0175 198.653C86.0175 204.797 81.1023 209.712 74.9583 209.712C68.8143 209.712 63.8992 204.797 63.8992 198.653C63.8992 192.509 68.8143 187.594 74.9583 187.594C81.1023 187.594 86.0175 192.509 86.0175 198.653ZM67.5856 198.653C67.5856 202.749 70.8623 205.616 74.5487 205.616C78.2351 205.616 81.5119 202.34 81.5119 198.653C81.5119 194.967 78.2351 191.69 74.5487 191.69C70.8623 191.69 67.5856 194.967 67.5856 198.653Z" fill="black" fill-opacity="0.04"/>
<path d="M86.0175 366.184C86.0175 372.328 81.1023 377.243 74.9583 377.243C68.8143 377.243 63.8992 372.328 63.8992 366.184C63.8992 360.04 68.8143 355.125 74.9583 355.125C81.1023 355.125 86.0175 360.04 86.0175 366.184ZM67.5856 366.184C67.5856 370.28 70.8623 373.147 74.5487 373.147C78.2351 373.147 81.5119 369.87 81.5119 366.184C81.5119 362.497 78.2351 359.22 74.5487 359.22C70.8623 359.22 67.5856 362.497 67.5856 366.184Z" fill="black" fill-opacity="0.04"/>
<path d="M40.5583 321.123C40.5583 327.267 35.6431 332.183 29.4991 332.183C23.3551 332.183 18.4399 327.267 18.4399 321.123C18.4399 314.979 23.3551 310.064 29.4991 310.064C35.6431 310.064 40.5583 314.979 40.5583 321.123ZM22.1263 321.123C22.1263 325.219 25.4031 328.087 29.0895 328.087C32.7759 328.087 36.0527 324.81 36.0527 321.123C36.0527 317.437 32.7759 314.16 29.0895 314.16C25.4031 314.16 22.1263 317.437 22.1263 321.123Z" fill="black" fill-opacity="0.04"/>
<path d="M131.477 321.123C131.477 327.267 126.562 332.183 120.418 332.183C114.274 332.183 109.358 327.267 109.358 321.123C109.358 314.979 114.274 310.064 120.418 310.064C126.562 310.064 131.477 314.979 131.477 321.123ZM113.045 321.123C113.045 325.219 116.322 328.087 120.008 328.087C123.694 328.087 126.971 324.81 126.971 321.123C126.971 317.437 123.694 314.16 120.008 314.16C116.322 314.16 113.045 317.437 113.045 321.123Z" fill="black" fill-opacity="0.04"/>
<path d="M122.477 618.493C122.477 624.637 117.562 629.552 111.418 629.552C105.274 629.552 100.359 624.637 100.359 618.493C100.359 612.349 105.274 607.434 111.418 607.434C117.562 607.434 122.477 612.349 122.477 618.493ZM104.045 618.493C104.045 622.589 107.322 625.456 111.008 625.456C114.695 625.456 117.971 622.18 117.971 618.493C117.971 614.807 114.695 611.53 111.008 611.53C107.322 611.53 104.045 614.807 104.045 618.493Z" fill="black" fill-opacity="0.04"/>
<path d="M122.477 290.814C122.477 296.958 117.562 301.873 111.418 301.873C105.274 301.873 100.359 296.958 100.359 290.814C100.359 284.67 105.274 279.754 111.418 279.754C117.562 279.754 122.477 284.67 122.477 290.814ZM104.045 290.814C104.045 294.91 107.322 297.777 111.008 297.777C114.695 297.777 117.971 294.5 117.971 290.814C117.971 287.127 114.695 283.85 111.008 283.85C107.322 283.85 104.045 287.127 104.045 290.814Z" fill="black" fill-opacity="0.04"/>
<path d="M158.917 539.443C158.917 545.587 154.002 550.502 147.858 550.502C141.714 550.502 136.799 545.587 136.799 539.443C136.799 533.299 141.714 528.384 147.858 528.384C154.002 528.384 158.917 533.299 158.917 539.443ZM140.485 539.443C140.485 543.539 143.762 546.406 147.448 546.406C151.135 546.406 154.411 543.129 154.411 539.443C154.411 535.756 151.135 532.48 147.448 532.48C143.762 532.48 140.485 535.756 140.485 539.443Z" fill="black" fill-opacity="0.04"/>
<path d="M158.917 599.653C158.917 605.797 154.002 610.712 147.858 610.712C141.714 610.712 136.799 605.797 136.799 599.653C136.799 593.509 141.714 588.594 147.858 588.594C154.002 588.594 158.917 593.509 158.917 599.653ZM140.485 599.653C140.485 603.749 143.762 606.616 147.448 606.616C151.135 606.616 154.411 603.339 154.411 599.653C154.411 595.966 151.135 592.69 147.448 592.69C143.762 592.69 140.485 595.966 140.485 599.653Z" fill="black" fill-opacity="0.04"/>
<path d="M86.0175 851.968C86.0175 858.112 81.1023 863.027 74.9583 863.027C68.8143 863.027 63.8992 858.112 63.8992 851.968C63.8992 845.824 68.8143 840.908 74.9583 840.908C81.1023 840.908 86.0175 845.824 86.0175 851.968ZM67.5856 851.968C67.5856 856.064 70.8623 858.931 74.5487 858.931C78.2351 858.931 81.5119 855.654 81.5119 851.968C81.5119 848.281 78.2351 845.004 74.5487 845.004C70.8623 845.004 67.5856 848.281 67.5856 851.968Z" fill="black" fill-opacity="0.04"/>
<path d="M49.5583 548.863C49.5583 555.007 44.6431 559.923 38.4991 559.923C32.3551 559.923 27.4399 555.007 27.4399 548.863C27.4399 542.719 32.3551 537.804 38.4991 537.804C44.6431 537.804 49.5583 542.719 49.5583 548.863ZM31.1263 548.863C31.1263 552.959 34.4031 555.827 38.0895 555.827C41.7759 555.827 45.0527 552.55 45.0527 548.863C45.0527 545.177 41.7759 541.9 38.0895 541.9C34.4031 541.9 31.1263 545.177 31.1263 548.863Z" fill="black" fill-opacity="0.04"/>
<path d="M122.477 776.193C122.477 782.336 117.562 787.252 111.418 787.252C105.274 787.252 100.359 782.336 100.359 776.193C100.359 770.049 105.274 765.133 111.418 765.133C117.562 765.133 122.477 770.049 122.477 776.193ZM104.045 776.193C104.045 780.288 107.322 783.156 111.008 783.156C114.695 783.156 117.971 779.879 117.971 776.193C117.971 772.506 114.695 769.229 111.008 769.229C107.322 769.229 104.045 772.506 104.045 776.193Z" fill="black" fill-opacity="0.04"/>
<path d="M122.477 917.912C122.477 924.056 117.562 928.972 111.418 928.972C105.274 928.972 100.359 924.056 100.359 917.912C100.359 911.768 105.274 906.853 111.418 906.853C117.562 906.853 122.477 911.768 122.477 917.912ZM104.045 917.912C104.045 922.008 107.322 924.876 111.008 924.876C114.695 924.876 117.971 921.599 117.971 917.912C117.971 914.226 114.695 910.949 111.008 910.949C107.322 910.949 104.045 914.226 104.045 917.912Z" fill="black" fill-opacity="0.04"/>
<path d="M231.838 509.953C231.838 516.097 226.923 521.012 220.779 521.012C214.635 521.012 209.719 516.097 209.719 509.953C209.719 503.809 214.635 498.894 220.779 498.894C226.923 498.894 231.838 503.809 231.838 509.953ZM213.406 509.953C213.406 514.049 216.683 516.916 220.369 516.916C224.055 516.916 227.332 513.64 227.332 509.953C227.332 506.267 224.055 502.99 220.369 502.99C216.683 502.99 213.406 506.267 213.406 509.953Z" fill="black" fill-opacity="0.04"/>
<path d="M186.357 650.033C186.357 656.177 181.442 661.092 175.298 661.092C169.154 661.092 164.239 656.177 164.239 650.033C164.239 643.889 169.154 638.974 175.298 638.974C181.442 638.974 186.357 643.889 186.357 650.033ZM167.925 650.033C167.925 654.129 171.202 656.996 174.888 656.996C178.575 656.996 181.851 653.72 181.851 650.033C181.851 646.347 178.575 643.07 174.888 643.07C171.202 643.07 167.925 646.347 167.925 650.033Z" fill="black" fill-opacity="0.04"/>
<path d="M231.838 681.983C231.838 688.127 226.923 693.042 220.779 693.042C214.635 693.042 209.719 688.127 209.719 681.983C209.719 675.839 214.635 670.924 220.779 670.924C226.923 670.924 231.838 675.839 231.838 681.983ZM213.406 681.983C213.406 686.079 216.683 688.946 220.369 688.946C224.055 688.946 227.332 685.669 227.332 681.983C227.332 678.296 224.055 675.02 220.369 675.02C216.683 675.02 213.406 678.296 213.406 681.983Z" fill="black" fill-opacity="0.04"/>
<path d="M195.376 822.883C195.376 829.027 190.461 833.942 184.317 833.942C178.173 833.942 173.258 829.027 173.258 822.883C173.258 816.739 178.173 811.823 184.317 811.823C190.461 811.823 195.376 816.739 195.376 822.883ZM176.944 822.883C176.944 826.979 180.221 829.846 183.907 829.846C187.594 829.846 190.87 826.569 190.87 822.883C190.87 819.196 187.594 815.919 183.907 815.919C180.221 815.919 176.944 819.196 176.944 822.883Z" fill="black" fill-opacity="0.04"/>
<path d="M231.838 880.637C231.838 886.781 226.923 891.697 220.779 891.697C214.635 891.697 209.719 886.781 209.719 880.637C209.719 874.493 214.635 869.578 220.779 869.578C226.923 869.578 231.838 874.493 231.838 880.637ZM213.406 880.637C213.406 884.733 216.683 887.601 220.369 887.601C224.055 887.601 227.332 884.324 227.332 880.637C227.332 876.951 224.055 873.674 220.369 873.674C216.683 873.674 213.406 876.951 213.406 880.637Z" fill="#B79FFF"/>
<path d="M158.917 1010.89C158.917 1017.04 154.002 1021.95 147.858 1021.95C141.714 1021.95 136.799 1017.04 136.799 1010.89C136.799 1004.75 141.714 999.833 147.858 999.833C154.002 999.833 158.917 1004.75 158.917 1010.89ZM140.485 1010.89C140.485 1014.99 143.762 1017.86 147.448 1017.86C151.135 1017.86 154.411 1014.58 154.411 1010.89C154.411 1007.21 151.135 1003.93 147.448 1003.93C143.762 1003.93 140.485 1007.21 140.485 1010.89Z" fill="#B79FFF"/>
<path d="M268.278 668.468C268.278 674.612 263.363 679.527 257.219 679.527C251.075 679.527 246.16 674.612 246.16 668.468C246.16 662.324 251.075 657.409 257.219 657.409C263.363 657.409 268.278 662.324 268.278 668.468ZM249.846 668.468C249.846 672.564 253.123 675.431 256.81 675.431C260.496 675.431 263.773 672.154 263.773 668.468C263.773 664.781 260.496 661.505 256.81 661.505C253.123 661.505 249.846 664.781 249.846 668.468Z" fill="black" fill-opacity="0.04"/>
<path d="M268.278 970.342C268.278 976.486 263.363 981.402 257.219 981.402C251.075 981.402 246.16 976.486 246.16 970.342C246.16 964.198 251.075 959.283 257.219 959.283C263.363 959.283 268.278 964.198 268.278 970.342ZM249.846 970.342C249.846 974.438 253.123 977.306 256.81 977.306C260.496 977.306 263.773 974.029 263.773 970.342C263.773 966.656 260.496 963.379 256.81 963.379C253.123 963.379 249.846 966.656 249.846 970.342Z" fill="#B79FFF"/>
<path d="M231.838 630.373C231.838 636.517 226.923 641.432 220.779 641.432C214.635 641.432 209.719 636.517 209.719 630.373C209.719 624.229 214.635 619.314 220.779 619.314C226.923 619.314 231.838 624.229 231.838 630.373ZM213.406 630.373C213.406 634.469 216.683 637.336 220.369 637.336C224.055 637.336 227.332 634.059 227.332 630.373C227.332 626.686 224.055 623.41 220.369 623.41C216.683 623.41 213.406 626.686 213.406 630.373Z" fill="black" fill-opacity="0.04"/>
<path d="M195.376 505.853C195.376 511.997 190.461 516.912 184.317 516.912C178.173 516.912 173.258 511.997 173.258 505.853C173.258 499.709 178.173 494.794 184.317 494.794C190.461 494.794 195.376 499.709 195.376 505.853ZM176.944 505.853C176.944 509.949 180.221 512.816 183.907 512.816C187.594 512.816 190.87 509.54 190.87 505.853C190.87 502.167 187.594 498.89 183.907 498.89C180.221 498.89 176.944 502.167 176.944 505.853Z" fill="black" fill-opacity="0.04"/>
<path d="M195.376 135.169C195.376 141.313 190.461 146.228 184.317 146.228C178.173 146.228 173.258 141.313 173.258 135.169C173.258 129.025 178.173 124.11 184.317 124.11C190.461 124.11 195.376 129.025 195.376 135.169ZM176.944 135.169C176.944 139.265 180.221 142.132 183.907 142.132C187.594 142.132 190.87 138.856 190.87 135.169C190.87 131.483 187.594 128.206 183.907 128.206C180.221 128.206 176.944 131.483 176.944 135.169Z" fill="#B79FFF"/>
<path d="M222.815 0H218.719V262.553H222.815V0Z" fill="#B79FFF"/>
<path d="M186.376 0H182.28V126.157H186.376V0Z" fill="#B79FFF"/>
<path d="M257.229 355.123V358.809H182.272V212.582H145.818V0H149.914V208.486H186.368V355.123H257.229Z" fill="#B79FFF"/>
<path d="M257.224 448.102V452.198H222.817V489.062H182.267V422.707H145.813V273.612H109.358V0H113.454V269.516H149.909V418.611H186.363V484.966H218.721V448.102H257.224Z" fill="#B79FFF"/>
<path d="M77.0023 0V154.009H38.5V149.913H72.9063V0H77.0023Z" fill="black" fill-opacity="0.04"/>
<path d="M76.9952 206.439H72.8992V356.762H76.9952V206.439Z" fill="black" fill-opacity="0.04"/>
<path d="M149.909 457.524V530.433H145.813V461.62H109.358V299.009H113.454V457.524H149.909Z" fill="black" fill-opacity="0.04"/>
<path d="M259.274 583.271V652.084H184.317V647.988H255.178V587.367H218.724V518.964H222.82V583.271H259.274Z" fill="black" fill-opacity="0.04"/>
<path d="M222.83 600.47V621.36H218.734V604.566H182.28V514.864H186.376V600.47H222.83Z" fill="black" fill-opacity="0.04"/>
<path d="M149.904 609.074V728.677H109.354V682.392H76.9952V842.546H72.8992V678.296H113.45V724.581H145.808V609.074H149.904Z" fill="black" fill-opacity="0.04"/>
<path d="M149.909 828.211V867.942H113.454V908.493H109.358V864.256H145.813V832.307H109.358V785.203H113.454V828.211H149.909Z" fill="black" fill-opacity="0.04"/>
<path d="M259.27 678.299V778.241H222.815V849.921H259.27V961.332H255.174V854.017H218.719V774.145H255.174V678.299H259.27Z" fill="black" fill-opacity="0.04"/>
<path d="M222.83 690.994V754.891H186.376V814.283H182.28V750.795H218.734V690.994H222.83Z" fill="black" fill-opacity="0.04"/>
<path d="M222.822 890.058V950.679H182.272V921.188H149.914V999.012H145.818V917.092H186.368V946.583H218.726V890.058H222.822Z" fill="#B79FFF"/>
<path d="M40.555 0H36.459V84.7871H40.555V0Z" fill="black" fill-opacity="0.04"/>
<path d="M113.459 530.84V609.073H109.363V534.936H72.9087V450.968H36.4544V376.011H0V296.139H36.4544V208.895H40.5504V300.235H4.09601V371.915H40.5504V446.872H77.0047V530.84H113.459Z" fill="black" fill-opacity="0.04"/>
<path d="M257.226 391.169H184.317V395.265H257.226V391.169Z" fill="#B79FFF"/>
<path d="M111.409 319.079H38.5V323.175H111.409V319.079Z" fill="black" fill-opacity="0.04"/>
<path d="M77.0047 874.494V1020.72H72.9087V878.59H36.4544V765.131H0V647.576H36.4544V558.284H40.5503V651.672H4.09601V761.035H40.5503V874.494H77.0047Z" fill="black" fill-opacity="0.04"/>
<path d="M40.555 676.249H36.459V733.593H40.555V676.249Z" fill="black" fill-opacity="0.04"/>
<path d="M299.415 0H295.319V171.622H299.415V0Z" fill="#B79FFF"/>
<path d="M308.437 181.864C308.437 188.008 303.522 192.923 297.378 192.923C291.234 192.923 286.319 188.008 286.319 181.864C286.319 175.72 291.234 170.805 297.378 170.805C303.522 170.805 308.437 175.72 308.437 181.864ZM290.005 181.864C290.005 185.96 293.282 188.827 296.968 188.827C300.655 188.827 303.932 185.551 303.932 181.864C303.932 178.178 300.655 174.901 296.968 174.901C293.282 174.901 290.005 178.178 290.005 181.864Z" fill="#B79FFF"/>
<path d="M299.416 450.148C299.416 456.292 294.501 461.207 288.357 461.207C282.213 461.207 277.297 456.292 277.297 450.148C277.297 444.004 282.213 439.089 288.357 439.089C294.501 439.089 299.416 444.004 299.416 450.148ZM280.984 450.148C280.984 454.244 284.261 457.111 287.947 457.111C291.633 457.111 294.91 453.835 294.91 450.148C294.91 446.462 291.633 443.185 287.947 443.185C284.261 443.185 280.984 446.462 280.984 450.148Z" fill="#B79FFF"/>
<path d="M344.878 270.333C344.878 276.477 339.962 281.393 333.818 281.393C327.674 281.393 322.759 276.477 322.759 270.333C322.759 264.189 327.674 259.274 333.818 259.274C339.962 259.274 344.878 264.189 344.878 270.333ZM326.446 270.333C326.446 274.429 329.722 277.297 333.409 277.297C337.095 277.297 340.372 274.02 340.372 270.333C340.372 266.647 337.095 263.37 333.409 263.37C329.722 263.37 326.446 266.647 326.446 270.333Z" fill="#B79FFF"/>
<path d="M299.416 356.758C299.416 362.902 294.501 367.818 288.357 367.818C282.213 367.818 277.297 362.902 277.297 356.758C277.297 350.614 282.213 345.699 288.357 345.699C294.501 345.699 299.416 350.614 299.416 356.758ZM280.984 356.758C280.984 360.854 284.261 363.722 287.947 363.722C291.633 363.722 294.91 360.445 294.91 356.758C294.91 353.072 291.633 349.795 287.947 349.795C284.261 349.795 280.984 353.072 280.984 356.758Z" fill="#B79FFF"/>
<path d="M299.416 393.214C299.416 399.358 294.501 404.273 288.357 404.273C282.213 404.273 277.297 399.358 277.297 393.214C277.297 387.07 282.213 382.154 288.357 382.154C294.501 382.154 299.416 387.07 299.416 393.214ZM280.984 393.214C280.984 397.31 284.261 400.177 287.947 400.177C291.633 400.177 294.91 396.9 294.91 393.214C294.91 389.527 291.633 386.25 287.947 386.25C284.261 386.25 280.984 389.527 280.984 393.214Z" fill="#B79FFF"/>
<path d="M390.356 393.214C390.356 399.358 385.44 404.273 379.296 404.273C373.152 404.273 368.237 399.358 368.237 393.214C368.237 387.07 373.152 382.154 379.296 382.154C385.44 382.154 390.356 387.07 390.356 393.214ZM371.924 393.214C371.924 397.31 375.2 400.177 378.887 400.177C382.573 400.177 385.85 396.9 385.85 393.214C385.85 389.527 382.573 386.25 378.887 386.25C375.2 386.25 371.924 389.527 371.924 393.214Z" fill="#B79FFF"/>
<path d="M536.157 151.959C536.157 158.103 531.242 163.018 525.098 163.018C518.954 163.018 514.039 158.103 514.039 151.959C514.039 145.815 518.954 140.899 525.098 140.899C531.242 140.899 536.157 145.815 536.157 151.959ZM517.725 151.959C517.725 156.055 521.002 158.922 524.688 158.922C528.375 158.922 531.652 155.645 531.652 151.959C531.652 148.272 528.375 144.995 524.688 144.995C521.002 144.995 517.725 148.272 517.725 151.959Z" fill="#B79FFF"/>
<path d="M526.736 94.2086C526.736 100.353 521.821 105.268 515.677 105.268C509.533 105.268 504.618 100.353 504.618 94.2086C504.618 88.0646 509.533 83.1494 515.677 83.1494C521.821 83.1494 526.736 88.0646 526.736 94.2086ZM508.304 94.2086C508.304 98.3046 511.581 101.172 515.267 101.172C518.954 101.172 522.23 97.895 522.23 94.2086C522.23 90.5222 518.954 87.2454 515.267 87.2454C511.581 87.2454 508.304 90.5222 508.304 94.2086Z" fill="#B79FFF"/>
<path d="M526.736 200.294C526.736 206.438 521.821 211.353 515.677 211.353C509.533 211.353 504.618 206.438 504.618 200.294C504.618 194.15 509.533 189.235 515.677 189.235C521.821 189.235 526.736 194.15 526.736 200.294ZM508.304 200.294C508.304 204.39 511.581 207.257 515.267 207.257C518.954 207.257 522.23 203.98 522.23 200.294C522.23 196.608 518.954 193.331 515.267 193.331C511.581 193.331 508.304 196.608 508.304 200.294Z" fill="#B79FFF"/>
<path d="M490.296 198.653C490.296 204.797 485.38 209.712 479.236 209.712C473.092 209.712 468.177 204.797 468.177 198.653C468.177 192.509 473.092 187.594 479.236 187.594C485.38 187.594 490.296 192.509 490.296 198.653ZM471.864 198.653C471.864 202.749 475.14 205.616 478.827 205.616C482.513 205.616 485.79 202.34 485.79 198.653C485.79 194.967 482.513 191.69 478.827 191.69C475.14 191.69 471.864 194.967 471.864 198.653Z" fill="#B79FFF"/>
<path d="M490.296 366.184C490.296 372.328 485.38 377.243 479.236 377.243C473.092 377.243 468.177 372.328 468.177 366.184C468.177 360.04 473.092 355.125 479.236 355.125C485.38 355.125 490.296 360.04 490.296 366.184ZM471.864 366.184C471.864 370.28 475.14 373.147 478.827 373.147C482.513 373.147 485.79 369.87 485.79 366.184C485.79 362.497 482.513 359.22 478.827 359.22C475.14 359.22 471.864 362.497 471.864 366.184Z" fill="#B79FFF"/>
<path d="M536.157 321.123C536.157 327.267 531.242 332.183 525.098 332.183C518.954 332.183 514.039 327.267 514.039 321.123C514.039 314.979 518.954 310.064 525.098 310.064C531.242 310.064 536.157 314.979 536.157 321.123ZM517.725 321.123C517.725 325.219 521.002 328.087 524.688 328.087C528.375 328.087 531.652 324.81 531.652 321.123C531.652 317.437 528.375 314.16 524.688 314.16C521.002 314.16 517.725 317.437 517.725 321.123Z" fill="#B79FFF"/>
<path d="M444.818 321.123C444.818 327.267 439.902 332.183 433.758 332.183C427.614 332.183 422.699 327.267 422.699 321.123C422.699 314.979 427.614 310.064 433.758 310.064C439.902 310.064 444.818 314.979 444.818 321.123ZM426.386 321.123C426.386 325.219 429.662 328.087 433.349 328.087C437.035 328.087 440.312 324.81 440.312 321.123C440.312 317.437 437.035 314.16 433.349 314.16C429.662 314.16 426.386 317.437 426.386 321.123Z" fill="#B79FFF"/>
<path d="M453.837 618.493C453.837 624.637 448.921 629.552 442.777 629.552C436.633 629.552 431.718 624.637 431.718 618.493C431.718 612.349 436.633 607.434 442.777 607.434C448.921 607.434 453.837 612.349 453.837 618.493ZM435.405 618.493C435.405 622.589 438.681 625.456 442.368 625.456C446.054 625.456 449.331 622.18 449.331 618.493C449.331 614.807 446.054 611.53 442.368 611.53C438.681 611.53 435.405 614.807 435.405 618.493Z" fill="#B79FFF"/>
<path d="M453.837 290.814C453.837 296.958 448.921 301.873 442.777 301.873C436.633 301.873 431.718 296.958 431.718 290.814C431.718 284.67 436.633 279.754 442.777 279.754C448.921 279.754 453.837 284.67 453.837 290.814ZM435.405 290.814C435.405 294.91 438.681 297.777 442.368 297.777C446.054 297.777 449.331 294.5 449.331 290.814C449.331 287.127 446.054 283.85 442.368 283.85C438.681 283.85 435.405 287.127 435.405 290.814Z" fill="#B79FFF"/>
<path d="M417.796 539.443C417.796 545.587 412.88 550.502 406.736 550.502C400.592 550.502 395.677 545.587 395.677 539.443C395.677 533.299 400.592 528.384 406.736 528.384C412.88 528.384 417.796 533.299 417.796 539.443ZM399.364 539.443C399.364 543.539 402.64 546.406 406.327 546.406C410.013 546.406 413.29 543.129 413.29 539.443C413.29 535.756 410.013 532.48 406.327 532.48C402.64 532.48 399.364 535.756 399.364 539.443Z" fill="#B79FFF"/>
<path d="M417.796 599.653C417.796 605.797 412.88 610.712 406.736 610.712C400.592 610.712 395.677 605.797 395.677 599.653C395.677 593.509 400.592 588.594 406.736 588.594C412.88 588.594 417.796 593.509 417.796 599.653ZM399.364 599.653C399.364 603.749 402.64 606.616 406.327 606.616C410.013 606.616 413.29 603.339 413.29 599.653C413.29 595.966 410.013 592.69 406.327 592.69C402.64 592.69 399.364 595.966 399.364 599.653Z" fill="#B79FFF"/>
<path d="M490.296 851.968C490.296 858.112 485.38 863.027 479.236 863.027C473.092 863.027 468.177 858.112 468.177 851.968C468.177 845.824 473.092 840.908 479.236 840.908C485.38 840.908 490.296 845.824 490.296 851.968ZM471.864 851.968C471.864 856.064 475.14 858.931 478.827 858.931C482.513 858.931 485.79 855.654 485.79 851.968C485.79 848.281 482.513 845.004 478.827 845.004C475.14 845.004 471.864 848.281 471.864 851.968Z" fill="#B79FFF"/>
<path d="M526.736 548.863C526.736 555.007 521.821 559.923 515.677 559.923C509.533 559.923 504.618 555.007 504.618 548.863C504.618 542.719 509.533 537.804 515.677 537.804C521.821 537.804 526.736 542.719 526.736 548.863ZM508.304 548.863C508.304 552.959 511.581 555.827 515.267 555.827C518.954 555.827 522.23 552.55 522.23 548.863C522.23 545.177 518.954 541.9 515.267 541.9C511.581 541.9 508.304 545.177 508.304 548.863Z" fill="#B79FFF"/>
<path d="M453.837 776.193C453.837 782.336 448.921 787.252 442.777 787.252C436.633 787.252 431.718 782.336 431.718 776.193C431.718 770.049 436.633 765.133 442.777 765.133C448.921 765.133 453.837 770.049 453.837 776.193ZM435.405 776.193C435.405 780.288 438.681 783.156 442.368 783.156C446.054 783.156 449.331 779.879 449.331 776.193C449.331 772.506 446.054 769.229 442.368 769.229C438.681 769.229 435.405 772.506 435.405 776.193Z" fill="#B79FFF"/>
<path d="M453.837 917.912C453.837 924.056 448.921 928.972 442.777 928.972C436.633 928.972 431.718 924.056 431.718 917.912C431.718 911.768 436.633 906.853 442.777 906.853C448.921 906.853 453.837 911.768 453.837 917.912ZM435.405 917.912C435.405 922.008 438.681 924.876 442.368 924.876C446.054 924.876 449.331 921.599 449.331 917.912C449.331 914.226 446.054 910.949 442.368 910.949C438.681 910.949 435.405 914.226 435.405 917.912Z" fill="#B79FFF"/>
<path d="M344.878 509.953C344.878 516.097 339.962 521.012 333.818 521.012C327.674 521.012 322.759 516.097 322.759 509.953C322.759 503.809 327.674 498.894 333.818 498.894C339.962 498.894 344.878 503.809 344.878 509.953ZM326.446 509.953C326.446 514.049 329.722 516.916 333.409 516.916C337.095 516.916 340.372 513.64 340.372 509.953C340.372 506.267 337.095 502.99 333.409 502.99C329.722 502.99 326.446 506.267 326.446 509.953Z" fill="#B79FFF"/>
<path d="M390.356 650.033C390.356 656.177 385.44 661.092 379.296 661.092C373.152 661.092 368.237 656.177 368.237 650.033C368.237 643.889 373.152 638.974 379.296 638.974C385.44 638.974 390.356 643.889 390.356 650.033ZM371.924 650.033C371.924 654.129 375.2 656.996 378.887 656.996C382.573 656.996 385.85 653.72 385.85 650.033C385.85 646.347 382.573 643.07 378.887 643.07C375.2 643.07 371.924 646.347 371.924 650.033Z" fill="#B79FFF"/>
<path d="M344.878 681.983C344.878 688.127 339.962 693.042 333.818 693.042C327.674 693.042 322.759 688.127 322.759 681.983C322.759 675.839 327.674 670.924 333.818 670.924C339.962 670.924 344.878 675.839 344.878 681.983ZM326.446 681.983C326.446 686.079 329.722 688.946 333.409 688.946C337.095 688.946 340.372 685.669 340.372 681.983C340.372 678.296 337.095 675.02 333.409 675.02C329.722 675.02 326.446 678.296 326.446 681.983Z" fill="#B79FFF"/>
<path d="M381.337 822.883C381.337 829.027 376.421 833.942 370.277 833.942C364.133 833.942 359.218 829.027 359.218 822.883C359.218 816.739 364.133 811.823 370.277 811.823C376.421 811.823 381.337 816.739 381.337 822.883ZM362.905 822.883C362.905 826.979 366.181 829.846 369.868 829.846C373.554 829.846 376.831 826.569 376.831 822.883C376.831 819.196 373.554 815.919 369.868 815.919C366.181 815.919 362.905 819.196 362.905 822.883Z" fill="#B79FFF"/>
<path d="M344.878 880.637C344.878 886.781 339.962 891.697 333.818 891.697C327.674 891.697 322.759 886.781 322.759 880.637C322.759 874.493 327.674 869.578 333.818 869.578C339.962 869.578 344.878 874.493 344.878 880.637ZM326.446 880.637C326.446 884.733 329.722 887.601 333.409 887.601C337.095 887.601 340.372 884.324 340.372 880.637C340.372 876.951 337.095 873.674 333.409 873.674C329.722 873.674 326.446 876.951 326.446 880.637Z" fill="#B79FFF"/>
<path d="M417.796 1010.89C417.796 1017.04 412.88 1021.95 406.736 1021.95C400.592 1021.95 395.677 1017.04 395.677 1010.89C395.677 1004.75 400.592 999.833 406.736 999.833C412.88 999.833 417.796 1004.75 417.796 1010.89ZM399.364 1010.89C399.364 1014.99 402.64 1017.86 406.327 1017.86C410.013 1017.86 413.29 1014.58 413.29 1010.89C413.29 1007.21 410.013 1003.93 406.327 1003.93C402.64 1003.93 399.364 1007.21 399.364 1010.89Z" fill="#B79FFF"/>
<path d="M308.437 668.468C308.437 674.612 303.522 679.527 297.378 679.527C291.234 679.527 286.319 674.612 286.319 668.468C286.319 662.324 291.234 657.409 297.378 657.409C303.522 657.409 308.437 662.324 308.437 668.468ZM290.005 668.468C290.005 672.564 293.282 675.431 296.968 675.431C300.655 675.431 303.932 672.154 303.932 668.468C303.932 664.781 300.655 661.505 296.968 661.505C293.282 661.505 290.005 664.781 290.005 668.468Z" fill="black" fill-opacity="0.04"/>
<path d="M308.437 970.342C308.437 976.486 303.522 981.402 297.378 981.402C291.234 981.402 286.319 976.486 286.319 970.342C286.319 964.198 291.234 959.283 297.378 959.283C303.522 959.283 308.437 964.198 308.437 970.342ZM290.005 970.342C290.005 974.438 293.282 977.306 296.968 977.306C300.655 977.306 303.932 974.029 303.932 970.342C303.932 966.656 300.655 963.379 296.968 963.379C293.282 963.379 290.005 966.656 290.005 970.342Z" fill="#B79FFF"/>
<path d="M344.878 630.373C344.878 636.517 339.962 641.432 333.818 641.432C327.674 641.432 322.759 636.517 322.759 630.373C322.759 624.229 327.674 619.314 333.818 619.314C339.962 619.314 344.878 624.229 344.878 630.373ZM326.446 630.373C326.446 634.469 329.722 637.336 333.409 637.336C337.095 637.336 340.372 634.059 340.372 630.373C340.372 626.686 337.095 623.41 333.409 623.41C329.722 623.41 326.446 626.686 326.446 630.373Z" fill="#B79FFF"/>
<path d="M381.337 505.853C381.337 511.997 376.421 516.912 370.277 516.912C364.133 516.912 359.218 511.997 359.218 505.853C359.218 499.709 364.133 494.794 370.277 494.794C376.421 494.794 381.337 499.709 381.337 505.853ZM362.905 505.853C362.905 509.949 366.181 512.816 369.868 512.816C373.554 512.816 376.831 509.54 376.831 505.853C376.831 502.167 373.554 498.89 369.868 498.89C366.181 498.89 362.905 502.167 362.905 505.853Z" fill="#B79FFF"/>
<path d="M381.337 135.169C381.337 141.313 376.421 146.228 370.277 146.228C364.133 146.228 359.218 141.313 359.218 135.169C359.218 129.025 364.133 124.11 370.277 124.11C376.421 124.11 381.337 129.025 381.337 135.169ZM362.905 135.169C362.905 139.265 366.181 142.132 369.868 142.132C373.554 142.132 376.831 138.856 376.831 135.169C376.831 131.483 373.554 128.206 369.868 128.206C366.181 128.206 362.905 131.483 362.905 135.169Z" fill="#B79FFF"/>
<path d="M335.453 0H331.357V262.553H335.453V0Z" fill="#B79FFF"/>
<path d="M371.915 0H367.819V126.157H371.915V0Z" fill="#B79FFF"/>
<path d="M408.38 0V212.582H371.926V358.809H297.379V355.123H367.83V208.486H404.284V0H408.38Z" fill="#B79FFF"/>
<path d="M444.834 0V273.612H408.38V422.707H371.926V489.062H331.375V452.198H297.379V448.102H335.471V484.966H367.83V418.611H404.284V269.516H440.738V0H444.834Z" fill="#B79FFF"/>
<path d="M515.68 149.913V154.009H477.177V0H481.273V149.913H515.68Z" fill="#B79FFF"/>
<path d="M481.273 206.439H477.177V356.762H481.273V206.439Z" fill="#B79FFF"/>
<path d="M444.828 299.009V461.62H408.374V530.433H404.278V457.524H440.732V299.009H444.828Z" fill="#B79FFF"/>
<path d="M369.866 647.988V652.084H295.319V583.271H331.364V518.964H335.46V587.367H299.415V647.988H369.866Z" fill="#B79FFF"/>
<path d="M371.907 514.864V604.566H335.453V621.36H331.357V600.47H367.811V514.864H371.907Z" fill="#B79FFF"/>
<path d="M481.283 678.296V842.546H477.187V682.392H444.828V728.677H404.278V609.074H408.374V724.581H440.732V678.296H481.283Z" fill="#B79FFF"/>
<path d="M444.828 785.203V832.307H408.374V864.256H444.828V908.493H440.732V867.942H404.278V828.211H440.732V785.203H444.828Z" fill="#B79FFF"/>
<path d="M335.46 774.145V854.017H299.415V961.332H295.319V849.921H331.364V778.241H295.319V678.299H299.415V774.145H335.46Z" fill="black" fill-opacity="0.04"/>
<path d="M371.907 750.795V814.283H367.811V754.891H331.357V690.994H335.453V750.795H371.907Z" fill="#B79FFF"/>
<path d="M408.361 917.092V999.012H404.265V921.188H371.907V950.679H331.357V890.058H335.453V946.583H367.811V917.092H408.361Z" fill="#B79FFF"/>
<path d="M517.733 0H513.637V84.7871H517.733V0Z" fill="black" fill-opacity="0.04"/>
<path d="M554.196 296.139V376.011H517.742V450.968H481.288V534.936H444.833V609.073H440.737V530.84H477.192V446.872H513.646V371.915H550.1V300.235H513.646V208.895H517.742V296.139H554.196Z" fill="#B79FFF"/>
<path d="M370.287 391.169H297.379V395.265H370.287V391.169Z" fill="#B79FFF"/>
<path d="M515.687 319.079H442.778V323.175H515.687V319.079Z" fill="#B79FFF"/>
<path d="M554.182 647.576V765.131H517.728V879H481.273V1021.54H477.177V874.904H513.632V761.035H550.086V651.672H513.632V558.284H517.728V647.576H554.182Z" fill="#B79FFF"/>
<path d="M517.733 676.249H513.637V733.593H517.733V676.249Z" fill="#B79FFF"/>
</svg>
