<svg width="329" height="228" viewBox="0 0 329 228" fill="none" xmlns="http://www.w3.org/2000/svg">
<g clip-path="url(#clip0_12_47)">
<path opacity="0.7" d="M101.766 20.5251L47.2453 195.282C41.1689 214.753 59.3863 233.036 78.5925 226.74L278.613 161.201C297.819 154.905 301.978 129.301 285.762 117.127L140.262 7.91432C126.551 -2.3755 106.902 4.06018 101.766 20.5312V20.5251Z" fill="#E5146B"/>
<g opacity="0.8">
<path d="M328.064 78.5614C321.964 30.7058 242.706 -0.696887 181.21 0.0121285C94.2997 1.00596 8.76159 66.5081 0.977229 133.234C-0.167354 143.033 -2.00708 158.807 6.87393 172.509C24.7977 200.173 74.1587 200.524 155.358 200.167C167.733 200.112 178.082 199.815 185.465 199.536C189.822 204.154 197.114 210.778 207.721 216.001C219.629 221.861 230.451 223.382 237.043 223.788C233.076 220.752 226.814 215.141 221.894 206.208C218.196 199.494 216.548 193.252 215.757 188.865C229.043 186.907 260.63 180.357 288.609 154.256C297.029 146.403 332.493 113.315 328.064 78.5614Z" fill="#F15FCA"/>
<path opacity="0.8" d="M288.225 77.0464C277.882 37.4203 207.721 19.7918 156.005 27.2274C82.925 37.7293 18.0074 102.401 18.7085 159.468C18.8104 167.849 18.9782 181.332 27.9431 191.889C46.0467 213.196 87.6592 207.996 155.999 198.664C166.414 197.24 175.097 195.84 181.287 194.785C185.458 198.191 192.32 202.954 201.824 206.178C212.485 209.79 221.767 209.863 227.364 209.475C223.691 207.36 217.806 203.33 212.694 196.355C208.847 191.113 206.78 186.041 205.641 182.435C216.62 179.308 242.508 170.279 263.23 145.185C269.462 137.634 295.734 105.825 288.225 77.0464Z" fill="#E21FA6"/>
</g>
</g>
<defs>
<clipPath id="clip0_12_47">
<rect width="328.448" height="228" fill="white"/>
</clipPath>
</defs>
</svg>
